<svg xmlns="http://www.w3.org/2000/svg" xmlns:xlink="http://www.w3.org/1999/xlink" width="250" zoomAndPan="magnify" viewBox="0 0 187.5 187.499992" height="250" preserveAspectRatio="xMidYMid meet" version="1.0"><defs><clipPath id="7ec9e0113f"><path d="M 111.828125 114.925781 L 169.320312 114.925781 L 169.320312 135.605469 L 111.828125 135.605469 Z M 111.828125 114.925781 " clip-rule="nonzero"/></clipPath><clipPath id="25cf03a5b0"><path d="M 113.390625 119.34375 C 135.816406 115.609375 149.40625 113.910156 155.523438 115.609375 C 159.089844 116.457031 161.128906 118.496094 163.339844 120.363281 C 165.546875 122.402344 167.925781 125.460938 168.773438 127.5 C 169.285156 128.6875 169.453125 129.707031 169.113281 130.726562 C 168.605469 132.257812 166.734375 134.464844 164.1875 135.144531 C 159.601562 136.503906 144.480469 133.445312 141.253906 131.578125 C 140.234375 130.898438 139.722656 130.21875 139.722656 129.539062 C 139.894531 128.6875 141.421875 127.160156 142.101562 127.332031 C 142.78125 127.5 143.972656 130.558594 143.460938 131.066406 C 143.121094 131.40625 140.234375 131.066406 139.894531 130.386719 C 139.722656 129.707031 140.574219 127.839844 141.761719 127.332031 C 144.988281 125.972656 159.769531 132.085938 162.660156 130.726562 C 163.847656 130.21875 164.527344 129.199219 164.359375 128.179688 C 164.019531 125.972656 159.601562 121.214844 155.351562 119.515625 C 149.238281 117.136719 136.324219 119.683594 128.851562 120.703125 C 123.074219 121.382812 116.789062 124.441406 114.070312 123.761719 C 112.878906 123.421875 111.863281 122.574219 111.863281 121.894531 C 111.691406 121.214844 113.390625 119.34375 113.390625 119.34375 " clip-rule="nonzero"/></clipPath><clipPath id="3c1dded05e"><path d="M 45.324219 62.039062 L 141.894531 62.039062 L 141.894531 158.613281 L 45.324219 158.613281 Z M 45.324219 62.039062 " clip-rule="nonzero"/></clipPath><clipPath id="1ee8b8bff3"><path d="M 118.363281 66.800781 L 137.136719 85.570312 C 140.183594 88.621094 141.894531 92.753906 141.894531 97.0625 L 141.894531 123.585938 C 141.894531 127.898438 140.183594 132.03125 137.136719 135.078125 L 118.363281 153.851562 C 115.316406 156.898438 111.183594 158.613281 106.871094 158.613281 L 80.347656 158.613281 C 76.039062 158.613281 71.902344 156.898438 68.855469 153.851562 L 50.082031 135.078125 C 47.035156 132.03125 45.324219 127.898438 45.324219 123.585938 L 45.324219 97.0625 C 45.324219 92.753906 47.035156 88.621094 50.082031 85.570312 L 68.855469 66.800781 C 71.902344 63.75 76.039062 62.039062 80.347656 62.039062 L 106.871094 62.039062 C 111.183594 62.039062 115.316406 63.75 118.363281 66.800781 Z M 118.363281 66.800781 " clip-rule="nonzero"/></clipPath><clipPath id="dafeed2184"><path d="M 34.105469 36.933594 L 153.367188 36.933594 L 153.367188 110.324219 L 34.105469 110.324219 Z M 34.105469 36.933594 " clip-rule="nonzero"/></clipPath><clipPath id="61bc247376"><path d="M 43.082031 36.933594 L 144.136719 36.933594 C 146.519531 36.933594 148.800781 37.878906 150.484375 39.5625 C 152.167969 41.246094 153.113281 43.53125 153.113281 45.910156 L 153.113281 101.351562 C 153.113281 103.730469 152.167969 106.011719 150.484375 107.695312 C 148.800781 109.378906 146.519531 110.324219 144.136719 110.324219 L 43.082031 110.324219 C 40.699219 110.324219 38.417969 109.378906 36.734375 107.695312 C 35.050781 106.011719 34.105469 103.730469 34.105469 101.351562 L 34.105469 45.910156 C 34.105469 43.53125 35.050781 41.246094 36.734375 39.5625 C 38.417969 37.878906 40.699219 36.933594 43.082031 36.933594 Z M 43.082031 36.933594 " clip-rule="nonzero"/></clipPath><clipPath id="6dba3a86b7"><path d="M 48.632812 51.140625 L 138.585938 51.140625 L 138.585938 96.117188 L 48.632812 96.117188 Z M 48.632812 51.140625 " clip-rule="nonzero"/></clipPath><clipPath id="800ad90509"><path d="M 116.097656 51.140625 C 128.515625 51.140625 138.585938 61.210938 138.585938 73.628906 C 138.585938 86.050781 128.515625 96.117188 116.097656 96.117188 L 71.121094 96.117188 C 58.703125 96.117188 48.632812 86.050781 48.632812 73.628906 C 48.632812 61.210938 58.703125 51.140625 71.121094 51.140625 Z M 116.097656 51.140625 " clip-rule="nonzero"/></clipPath><clipPath id="e0b240b82a"><path d="M 103.855469 110.257812 L 123.457031 110.257812 L 123.457031 127.453125 L 103.855469 127.453125 Z M 103.855469 110.257812 " clip-rule="nonzero"/></clipPath><clipPath id="cc8c539cab"><path d="M 104.628906 113.058594 C 103.042969 115.675781 104.160156 118.21875 105.566406 119.570312 L 113.78125 127.453125 L 121.824219 119.597656 C 123.128906 118.144531 123.632812 116.605469 123.351562 114.886719 C 122.96875 112.515625 121.011719 110.671875 118.597656 110.410156 C 117.113281 110.25 115.683594 110.667969 114.566406 111.597656 C 114.265625 111.847656 113.996094 112.128906 113.761719 112.429688 C 113.484375 112.085938 113.15625 111.769531 112.789062 111.488281 C 111.503906 110.511719 109.867188 110.125 108.296875 110.425781 C 106.808594 110.714844 105.472656 111.671875 104.628906 113.058594 Z M 104.628906 113.058594 " clip-rule="nonzero"/></clipPath><clipPath id="16f7dee8ba"><path d="M 56.269531 159.386719 L 130.988281 159.386719 L 130.988281 183.417969 L 56.269531 183.417969 Z M 56.269531 159.386719 " clip-rule="nonzero"/></clipPath><clipPath id="abaaa52ce8"><path d="M 93.609375 159.386719 C 72.984375 159.386719 56.269531 164.765625 56.269531 171.402344 C 56.269531 178.039062 72.984375 183.417969 93.609375 183.417969 C 114.234375 183.417969 130.953125 178.039062 130.953125 171.402344 C 130.953125 164.765625 114.234375 159.386719 93.609375 159.386719 Z M 93.609375 159.386719 " clip-rule="nonzero"/></clipPath></defs><g clip-path="url(#7ec9e0113f)"><g clip-path="url(#25cf03a5b0)"><path fill="#0c1c3f" d="M 105.066406 108.8125 L 176.085938 108.8125 L 176.085938 142.109375 L 105.066406 142.109375 Z M 105.066406 108.8125 " fill-opacity="1" fill-rule="nonzero"/></g></g><g clip-path="url(#3c1dded05e)"><g clip-path="url(#1ee8b8bff3)"><path fill="#0c1c3f" d="M 45.324219 62.039062 L 141.894531 62.039062 L 141.894531 158.613281 L 45.324219 158.613281 Z M 45.324219 62.039062 " fill-opacity="1" fill-rule="nonzero"/></g></g><path stroke-linecap="butt" transform="matrix(-0.293519, 0.68801, -0.68801, -0.293519, 110.715601, 14.855005)" fill="none" stroke-linejoin="miter" d="M 15.001746 1.998221 L 38.597795 1.99805 " stroke="#000000" stroke-width="4" stroke-opacity="1" stroke-miterlimit="4"/><path stroke-linecap="round" transform="matrix(-0.293519, 0.68801, -0.68801, -0.293519, 110.715601, 14.855005)" fill="none" stroke-linejoin="round" d="M 1.999954 1.998036 C 2.0013 -1.312581 4.686185 -4.002317 7.996802 -4.000972 C 11.312223 -4.001675 13.997156 -1.314741 13.997859 2.00068 C 13.998563 5.3161 11.311628 8.001033 8.001011 7.999688 C 4.685591 8.000391 2.000658 5.313456 1.999954 1.998036 " stroke="#000000" stroke-width="4" stroke-opacity="1" stroke-miterlimit="4"/><path stroke-linecap="round" transform="matrix(-0.293519, 0.68801, -0.68801, -0.293519, 110.715601, 14.855005)" fill="none" stroke-linejoin="round" d="M 51.594784 2.000284 C 51.595487 5.315705 48.908553 8.000638 45.597936 7.999292 C 42.282515 7.999996 39.597582 5.313061 39.596879 1.997641 C 39.598224 -1.312977 42.285159 -3.997909 45.60058 -3.998613 C 48.911197 -3.997267 51.59408 -1.315136 51.594784 2.000284 " stroke="#000000" stroke-width="4" stroke-opacity="1" stroke-miterlimit="4"/><path stroke-linecap="butt" transform="matrix(0.748005, 0, 0, 0.748005, 76.183791, 3.583793)" fill="none" stroke-linejoin="miter" d="M 1.999847 15.001091 L 1.999847 21.069314 C 1.999847 24.416759 4.715403 27.137537 8.06807 27.137537 L 12.647959 27.137537 C 18.528182 27.137537 23.296071 31.905426 23.296071 37.785649 L 23.296071 48.579983 " stroke="#000000" stroke-width="4" stroke-opacity="1" stroke-miterlimit="4"/><path stroke-linecap="round" transform="matrix(0.748005, 0, 0, 0.748005, 76.183791, 3.583793)" fill="none" stroke-linejoin="round" d="M 1.999847 1.997757 C 5.315959 1.997757 8.000181 4.687201 8.000181 7.998091 C 8.000181 11.314202 5.315959 13.998424 1.999847 13.998424 C -1.316264 13.998424 -4.000487 11.314202 -4.000487 7.998091 C -4.000487 4.687201 -1.316264 1.997757 1.999847 1.997757 " stroke="#000000" stroke-width="4" stroke-opacity="1" stroke-miterlimit="4"/><path stroke-linecap="round" transform="matrix(0.748005, 0, 0, 0.748005, 76.183791, 3.583793)" fill="none" stroke-linejoin="round" d="M 23.296071 61.578095 C 19.985182 61.578095 17.295738 58.893873 17.295738 55.577761 C 17.295738 52.266872 19.985182 49.58265 23.296071 49.58265 C 26.612183 49.58265 29.296405 52.266872 29.296405 55.577761 C 29.296405 58.893873 26.612183 61.578095 23.296071 61.578095 " stroke="#000000" stroke-width="4" stroke-opacity="1" stroke-miterlimit="4"/><g clip-path="url(#dafeed2184)"><g clip-path="url(#61bc247376)"><path fill="#0c1c3f" d="M 34.105469 36.933594 L 153.082031 36.933594 L 153.082031 110.324219 L 34.105469 110.324219 Z M 34.105469 36.933594 " fill-opacity="1" fill-rule="nonzero"/></g></g><g clip-path="url(#6dba3a86b7)"><g clip-path="url(#800ad90509)"><path fill="#f2e4eb" d="M 48.632812 51.140625 L 138.585938 51.140625 L 138.585938 96.117188 L 48.632812 96.117188 Z M 48.632812 51.140625 " fill-opacity="1" fill-rule="nonzero"/></g></g><path stroke-linecap="butt" transform="matrix(0.748005, 0, 0, 0.748005, 63.791982, 74.859519)" fill="none" stroke-linejoin="miter" d="M 14.999543 1.999919 L 64.725547 1.999919 " stroke="#000000" stroke-width="4" stroke-opacity="1" stroke-miterlimit="4"/><path stroke-linecap="round" transform="matrix(0.748005, 0, 0, 0.748005, 63.791982, 74.859519)" fill-opacity="1" fill="#000000" fill-rule="nonzero" stroke-linejoin="round" d="M 2.001431 1.999919 C 2.001431 -1.316192 4.685653 -4.000415 8.001764 -4.000415 C 11.312654 -4.000415 14.002098 -1.316192 14.002098 1.999919 C 14.002098 5.316031 11.312654 8.000253 8.001764 8.000253 C 4.685653 8.000253 2.001431 5.316031 2.001431 1.999919 " stroke="#000000" stroke-width="4" stroke-opacity="1" stroke-miterlimit="4"/><path stroke-linecap="round" transform="matrix(0.748005, 0, 0, 0.748005, 63.791982, 74.859519)" fill-opacity="1" fill="#000000" fill-rule="nonzero" stroke-linejoin="round" d="M 77.723659 1.999919 C 77.723659 5.316031 75.039437 8.000253 71.723325 8.000253 C 68.412436 8.000253 65.728214 5.316031 65.728214 1.999919 C 65.728214 -1.316192 68.412436 -4.000415 71.723325 -4.000415 C 75.039437 -4.000415 77.723659 -1.316192 77.723659 1.999919 " stroke="#000000" stroke-width="4" stroke-opacity="1" stroke-miterlimit="4"/><g clip-path="url(#e0b240b82a)"><g clip-path="url(#cc8c539cab)"><path fill="#ff3131" d="M 103.855469 110.324219 L 123.457031 110.324219 L 123.457031 127.453125 L 103.855469 127.453125 Z M 103.855469 110.324219 " fill-opacity="1" fill-rule="nonzero"/></g></g><g clip-path="url(#16f7dee8ba)"><g clip-path="url(#abaaa52ce8)"><path fill="#0c1c3f" d="M 56.269531 159.386719 L 130.988281 159.386719 L 130.988281 183.417969 L 56.269531 183.417969 Z M 56.269531 159.386719 " fill-opacity="1" fill-rule="nonzero"/></g></g></svg>