<svg xmlns="http://www.w3.org/2000/svg" xmlns:xlink="http://www.w3.org/1999/xlink" width="250" zoomAndPan="magnify" viewBox="0 0 187.5 187.499992" height="250" preserveAspectRatio="xMidYMid meet" version="1.0"><defs><g/><clipPath id="fd5f32a654"><path d="M 101.238281 75.96875 L 126.757812 75.96875 L 126.757812 85.148438 L 101.238281 85.148438 Z M 101.238281 75.96875 " clip-rule="nonzero"/></clipPath><clipPath id="2da6414572"><path d="M 101.929688 77.929688 C 111.886719 76.273438 117.917969 75.519531 120.632812 76.273438 C 122.21875 76.648438 123.121094 77.554688 124.101562 78.382812 C 125.082031 79.289062 126.136719 80.644531 126.515625 81.550781 C 126.742188 82.078125 126.816406 82.53125 126.667969 82.984375 C 126.441406 83.664062 125.609375 84.644531 124.480469 84.945312 C 122.441406 85.546875 115.730469 84.191406 114.296875 83.359375 C 113.847656 83.058594 113.621094 82.757812 113.621094 82.457031 C 113.695312 82.078125 114.375 81.398438 114.675781 81.476562 C 114.976562 81.550781 115.503906 82.910156 115.277344 83.136719 C 115.128906 83.285156 113.847656 83.136719 113.695312 82.832031 C 113.621094 82.53125 113.996094 81.703125 114.523438 81.476562 C 115.957031 80.871094 122.519531 83.585938 123.800781 82.984375 C 124.328125 82.757812 124.628906 82.304688 124.554688 81.851562 C 124.402344 80.871094 122.441406 78.761719 120.558594 78.007812 C 117.84375 76.949219 112.109375 78.082031 108.792969 78.535156 C 106.230469 78.835938 103.4375 80.195312 102.230469 79.890625 C 101.703125 79.742188 101.25 79.363281 101.25 79.0625 C 101.175781 78.761719 101.929688 77.929688 101.929688 77.929688 " clip-rule="nonzero"/></clipPath><clipPath id="6fc207970a"><path d="M 71.714844 52.492188 L 114.585938 52.492188 L 114.585938 95.363281 L 71.714844 95.363281 Z M 71.714844 52.492188 " clip-rule="nonzero"/></clipPath><clipPath id="894e4a1235"><path d="M 106.785156 57.253906 L 109.824219 60.292969 C 112.871094 63.339844 114.585938 67.472656 114.585938 71.785156 L 114.585938 76.070312 C 114.585938 80.382812 112.871094 84.515625 109.824219 87.5625 L 106.785156 90.601562 C 103.738281 93.648438 99.601562 95.363281 95.292969 95.363281 L 91.007812 95.363281 C 86.695312 95.363281 82.5625 93.648438 79.515625 90.601562 L 76.476562 87.5625 C 73.425781 84.515625 71.714844 80.382812 71.714844 76.070312 L 71.714844 71.785156 C 71.714844 67.472656 73.425781 63.339844 76.476562 60.292969 L 79.515625 57.253906 C 82.5625 54.203125 86.695312 52.492188 91.007812 52.492188 L 95.292969 52.492188 C 99.601562 52.492188 103.738281 54.203125 106.785156 57.253906 Z M 106.785156 57.253906 " clip-rule="nonzero"/></clipPath><clipPath id="bf91150e36"><path d="M 66.734375 41.347656 L 119.675781 41.347656 L 119.675781 73.925781 L 66.734375 73.925781 Z M 66.734375 41.347656 " clip-rule="nonzero"/></clipPath><clipPath id="4dc31738d8"><path d="M 75.710938 41.347656 L 110.585938 41.347656 C 112.96875 41.347656 115.25 42.292969 116.933594 43.976562 C 118.617188 45.660156 119.5625 47.945312 119.5625 50.324219 L 119.5625 64.953125 C 119.5625 67.332031 118.617188 69.613281 116.933594 71.296875 C 115.25 72.980469 112.96875 73.925781 110.585938 73.925781 L 75.710938 73.925781 C 73.332031 73.925781 71.046875 72.980469 69.363281 71.296875 C 67.679688 69.613281 66.734375 67.332031 66.734375 64.953125 L 66.734375 50.324219 C 66.734375 47.945312 67.679688 45.660156 69.363281 43.976562 C 71.046875 42.292969 73.332031 41.347656 75.710938 41.347656 Z M 75.710938 41.347656 " clip-rule="nonzero"/></clipPath><clipPath id="c730a77b85"><path d="M 73.183594 47.65625 L 113.113281 47.65625 L 113.113281 67.621094 L 73.183594 67.621094 Z M 73.183594 47.65625 " clip-rule="nonzero"/></clipPath><clipPath id="1764fb5be3"><path d="M 103.132812 47.65625 C 108.644531 47.65625 113.113281 52.125 113.113281 57.636719 C 113.113281 63.152344 108.644531 67.621094 103.132812 67.621094 L 83.167969 67.621094 C 77.652344 67.621094 73.183594 63.152344 73.183594 57.636719 C 73.183594 52.125 77.652344 47.65625 83.167969 47.65625 Z M 103.132812 47.65625 " clip-rule="nonzero"/></clipPath><clipPath id="a1d2be6c59"><path d="M 97.695312 73.898438 L 106.398438 73.898438 L 106.398438 81.53125 L 97.695312 81.53125 Z M 97.695312 73.898438 " clip-rule="nonzero"/></clipPath><clipPath id="d54c964535"><path d="M 98.042969 75.140625 C 97.335938 76.300781 97.832031 77.429688 98.457031 78.03125 L 102.105469 81.53125 L 105.671875 78.042969 C 106.253906 77.398438 106.476562 76.714844 106.351562 75.953125 C 106.183594 74.898438 105.3125 74.082031 104.242188 73.964844 C 103.582031 73.894531 102.949219 74.078125 102.453125 74.492188 C 102.316406 74.601562 102.199219 74.726562 102.09375 74.863281 C 101.972656 74.707031 101.828125 74.566406 101.664062 74.445312 C 101.09375 74.011719 100.367188 73.839844 99.667969 73.972656 C 99.007812 74.097656 98.414062 74.527344 98.042969 75.140625 Z M 98.042969 75.140625 " clip-rule="nonzero"/></clipPath><clipPath id="463dcbea80"><path d="M 76.574219 96.117188 L 109.742188 96.117188 L 109.742188 106.785156 L 76.574219 106.785156 Z M 76.574219 96.117188 " clip-rule="nonzero"/></clipPath><clipPath id="deb1f89e9a"><path d="M 93.148438 96.117188 C 83.996094 96.117188 76.574219 98.507812 76.574219 101.453125 C 76.574219 104.398438 83.996094 106.785156 93.148438 106.785156 C 102.304688 106.785156 109.726562 104.398438 109.726562 101.453125 C 109.726562 98.507812 102.304688 96.117188 93.148438 96.117188 Z M 93.148438 96.117188 " clip-rule="nonzero"/></clipPath></defs><g clip-path="url(#fd5f32a654)"><g clip-path="url(#2da6414572)"><path fill="#0c1c3f" d="M 98.234375 73.253906 L 129.761719 73.253906 L 129.761719 88.035156 L 98.234375 88.035156 Z M 98.234375 73.253906 " fill-opacity="1" fill-rule="nonzero"/></g></g><g clip-path="url(#6fc207970a)"><g clip-path="url(#894e4a1235)"><path fill="#0c1c3f" d="M 71.714844 52.492188 L 114.585938 52.492188 L 114.585938 95.363281 L 71.714844 95.363281 Z M 71.714844 52.492188 " fill-opacity="1" fill-rule="nonzero"/></g></g><path stroke-linecap="butt" transform="matrix(-0.293519, 0.68801, -0.68801, -0.293519, 100.815181, 31.58366)" fill="none" stroke-linejoin="miter" d="M 7.498768 1.000516 L 16.293714 1.001306 " stroke="#000000" stroke-width="2" stroke-opacity="1" stroke-miterlimit="4"/><path stroke-linecap="round" transform="matrix(-0.293519, 0.68801, -0.68801, -0.293519, 100.815181, 31.58366)" fill="none" stroke-linejoin="round" d="M 0.998897 1.002825 C 1.000946 -0.65591 2.340987 -1.999753 3.999722 -1.997704 C 5.656408 -2.000457 7.002301 -0.655613 6.998202 0.998319 C 7.000955 2.655004 5.656111 4.000897 3.997376 3.998847 C 2.345493 3.999552 0.999601 2.654707 0.998897 1.002825 " stroke="#000000" stroke-width="2" stroke-opacity="1" stroke-miterlimit="4"/><path stroke-linecap="round" transform="matrix(-0.293519, 0.68801, -0.68801, -0.293519, 100.815181, 31.58366)" fill="none" stroke-linejoin="round" d="M 22.793585 0.998997 C 22.791535 2.657732 21.451494 4.001575 19.792759 3.999525 C 18.136074 4.002279 16.790181 2.657434 16.792231 0.9987 C 16.789477 -0.657986 18.136371 -1.999075 19.793057 -2.001829 C 21.451791 -1.999779 22.790831 -0.657689 22.793585 0.998997 " stroke="#000000" stroke-width="2" stroke-opacity="1" stroke-miterlimit="4"/><path stroke-linecap="butt" transform="matrix(0.748005, 0, 0, 0.748005, 85.330062, 26.544219)" fill="none" stroke-linejoin="miter" d="M 1.000077 7.49744 L 1.000077 9.774329 C 1.000077 10.374885 1.240299 10.954551 1.6633 11.377551 C 2.091522 11.805774 2.671188 12.045996 3.271744 12.045996 L 6.112633 12.045996 C 8.509633 12.045996 10.4523 13.988663 10.4523 16.385663 L 10.4523 20.72533 " stroke="#000000" stroke-width="2" stroke-opacity="1" stroke-miterlimit="4"/><path stroke-linecap="round" transform="matrix(0.748005, 0, 0, 0.748005, 85.330062, 26.544219)" fill="none" stroke-linejoin="round" d="M 1.000077 1.000995 C 2.655522 1.000995 3.997633 2.343106 3.997633 3.998551 C 3.997633 5.659217 2.655522 7.001329 1.000077 7.001329 C -0.655367 7.001329 -1.997479 5.659217 -1.997479 3.998551 C -1.997479 2.343106 -0.655367 1.000995 1.000077 1.000995 " stroke="#000000" stroke-width="2" stroke-opacity="1" stroke-miterlimit="4"/><path stroke-linecap="round" transform="matrix(0.748005, 0, 0, 0.748005, 85.330062, 26.544219)" fill="none" stroke-linejoin="round" d="M 10.4523 27.221775 C 8.796856 27.221775 7.454744 25.879664 7.454744 24.224219 C 7.454744 22.568774 8.796856 21.221441 10.4523 21.221441 C 12.112967 21.221441 13.455078 22.568774 13.455078 24.224219 C 13.455078 25.879664 12.112967 27.221775 10.4523 27.221775 " stroke="#000000" stroke-width="2" stroke-opacity="1" stroke-miterlimit="4"/><g clip-path="url(#bf91150e36)"><g clip-path="url(#4dc31738d8)"><path fill="#0c1c3f" d="M 66.734375 41.347656 L 119.546875 41.347656 L 119.546875 73.925781 L 66.734375 73.925781 Z M 66.734375 41.347656 " fill-opacity="1" fill-rule="nonzero"/></g></g><g clip-path="url(#c730a77b85)"><g clip-path="url(#1764fb5be3)"><path fill="#f2e4eb" d="M 73.183594 47.65625 L 113.113281 47.65625 L 113.113281 67.621094 L 73.183594 67.621094 Z M 73.183594 47.65625 " fill-opacity="1" fill-rule="nonzero"/></g></g><path stroke-linecap="butt" transform="matrix(0.748005, 0, 0, 0.748005, 79.909755, 57.797385)" fill="none" stroke-linejoin="miter" d="M 7.499648 1.001985 L 27.89765 1.001985 " stroke="#000000" stroke-width="2" stroke-opacity="1" stroke-miterlimit="4"/><path stroke-linecap="round" transform="matrix(0.748005, 0, 0, 0.748005, 79.909755, 57.797385)" fill-opacity="1" fill="#000000" fill-rule="nonzero" stroke-linejoin="round" d="M 0.997981 1.001985 C 0.997981 -0.658682 2.345314 -2.000793 4.000759 -2.000793 C 5.656204 -2.000793 6.998315 -0.658682 6.998315 1.001985 C 6.998315 2.65743 5.656204 3.999541 4.000759 3.999541 C 2.345314 3.999541 0.997981 2.65743 0.997981 1.001985 " stroke="#000000" stroke-width="2" stroke-opacity="1" stroke-miterlimit="4"/><path stroke-linecap="round" transform="matrix(0.748005, 0, 0, 0.748005, 79.909755, 57.797385)" fill-opacity="1" fill="#000000" fill-rule="nonzero" stroke-linejoin="round" d="M 34.399317 1.001985 C 34.399317 2.65743 33.057206 3.999541 31.401761 3.999541 C 29.741095 3.999541 28.398983 2.65743 28.398983 1.001985 C 28.398983 -0.658682 29.741095 -2.000793 31.401761 -2.000793 C 33.057206 -2.000793 34.399317 -0.658682 34.399317 1.001985 " stroke="#000000" stroke-width="2" stroke-opacity="1" stroke-miterlimit="4"/><g clip-path="url(#a1d2be6c59)"><g clip-path="url(#d54c964535)"><path fill="#ff3131" d="M 97.695312 73.925781 L 106.398438 73.925781 L 106.398438 81.53125 L 97.695312 81.53125 Z M 97.695312 73.925781 " fill-opacity="1" fill-rule="nonzero"/></g></g><g clip-path="url(#463dcbea80)"><g clip-path="url(#deb1f89e9a)"><path fill="#0c1c3f" d="M 76.574219 96.117188 L 109.742188 96.117188 L 109.742188 106.785156 L 76.574219 106.785156 Z M 76.574219 96.117188 " fill-opacity="1" fill-rule="nonzero"/></g></g><g fill="#0c1c3f" fill-opacity="1"><g transform="translate(17.52578, 141.837109)"><g><path d="M 22.265625 -32.078125 L 22.265625 -22.90625 L 19.203125 -22.90625 C 18.191406 -22.90625 17.242188 -22.742188 16.359375 -22.421875 C 15.472656 -22.109375 14.703125 -21.65625 14.046875 -21.0625 C 13.390625 -20.46875 12.863281 -19.738281 12.46875 -18.875 C 12.070312 -18.019531 11.875 -17.0625 11.875 -16 C 11.875 -14.957031 12.0625 -14.015625 12.4375 -13.171875 C 12.820312 -12.335938 13.34375 -11.617188 14 -11.015625 C 14.65625 -10.421875 15.425781 -9.960938 16.3125 -9.640625 C 17.195312 -9.328125 18.144531 -9.171875 19.15625 -9.171875 L 22.265625 -9.171875 L 22.265625 0 L 16.859375 0 C 14.878906 0 12.960938 -0.394531 11.109375 -1.1875 C 9.265625 -1.988281 7.628906 -3.085938 6.203125 -4.484375 C 4.785156 -5.890625 3.648438 -7.570312 2.796875 -9.53125 C 1.941406 -11.488281 1.515625 -13.644531 1.515625 -16 C 1.515625 -18.34375 1.941406 -20.5 2.796875 -22.46875 C 3.648438 -24.445312 4.785156 -26.144531 6.203125 -27.5625 C 7.628906 -28.988281 9.257812 -30.097656 11.09375 -30.890625 C 12.925781 -31.679688 14.832031 -32.078125 16.8125 -32.078125 Z M 22.265625 -32.078125 "/></g></g></g><g fill="#0c1c3f" fill-opacity="1"><g transform="translate(41.311152, 141.837109)"><g><path d="M 26.53125 0 L 17.28125 0 L 17.28125 -11.546875 C 17.28125 -12.492188 16.941406 -13.265625 16.265625 -13.859375 C 15.597656 -14.453125 14.804688 -14.75 13.890625 -14.75 C 13.003906 -14.75 12.242188 -14.457031 11.609375 -13.875 C 10.984375 -13.300781 10.671875 -12.492188 10.671875 -11.453125 C 10.671875 -10.441406 10.976562 -9.640625 11.59375 -9.046875 C 12.207031 -8.453125 12.894531 -8.15625 13.65625 -8.15625 C 14.019531 -8.15625 14.394531 -8.203125 14.78125 -8.296875 C 15.164062 -8.390625 15.585938 -8.507812 16.046875 -8.65625 L 16.046875 0.328125 C 15.273438 0.410156 14.660156 0.46875 14.203125 0.5 C 13.742188 0.53125 13.300781 0.546875 12.875 0.546875 C 11.289062 0.546875 9.800781 0.25 8.40625 -0.34375 C 7.019531 -0.9375 5.804688 -1.753906 4.765625 -2.796875 C 3.722656 -3.835938 2.90625 -5.046875 2.3125 -6.421875 C 1.71875 -7.796875 1.421875 -9.242188 1.421875 -10.765625 C 1.421875 -12.597656 1.722656 -14.289062 2.328125 -15.84375 C 2.941406 -17.40625 3.789062 -18.75 4.875 -19.875 C 5.957031 -21.007812 7.222656 -21.890625 8.671875 -22.515625 C 10.128906 -23.148438 11.6875 -23.46875 13.34375 -23.46875 C 15.351562 -23.46875 17.164062 -23.128906 18.78125 -22.453125 C 20.40625 -21.785156 21.789062 -20.832031 22.9375 -19.59375 C 24.082031 -18.351562 24.96875 -16.851562 25.59375 -15.09375 C 26.21875 -13.34375 26.53125 -11.367188 26.53125 -9.171875 Z M 26.53125 0 "/></g></g></g><g fill="#0c1c3f" fill-opacity="1"><g transform="translate(69.312822, 141.837109)"><g><path d="M 16.3125 -32.078125 L 16.3125 -24.46875 L 12.6875 -24.46875 C 12.144531 -24.46875 11.695312 -24.335938 11.34375 -24.078125 C 10.988281 -23.816406 10.8125 -23.335938 10.8125 -22.640625 L 16.3125 -22.640625 L 16.3125 -14.75 L 10.8125 -14.75 L 10.8125 0 L 1.65625 0 L 1.65625 -22.734375 C 1.65625 -24.140625 1.859375 -25.414062 2.265625 -26.5625 C 2.679688 -27.707031 3.253906 -28.691406 3.984375 -29.515625 C 4.722656 -30.335938 5.578125 -30.96875 6.546875 -31.40625 C 7.523438 -31.851562 8.582031 -32.078125 9.71875 -32.078125 Z M 16.3125 -32.078125 "/></g></g></g><g fill="#0c1c3f" fill-opacity="1"><g transform="translate(86.269638, 141.837109)"><g><path d="M 16.3125 -32.078125 L 16.3125 -24.46875 L 12.6875 -24.46875 C 12.144531 -24.46875 11.695312 -24.335938 11.34375 -24.078125 C 10.988281 -23.816406 10.8125 -23.335938 10.8125 -22.640625 L 16.3125 -22.640625 L 16.3125 -14.75 L 10.8125 -14.75 L 10.8125 0 L 1.65625 0 L 1.65625 -22.734375 C 1.65625 -24.140625 1.859375 -25.414062 2.265625 -26.5625 C 2.679688 -27.707031 3.253906 -28.691406 3.984375 -29.515625 C 4.722656 -30.335938 5.578125 -30.96875 6.546875 -31.40625 C 7.523438 -31.851562 8.582031 -32.078125 9.71875 -32.078125 Z M 16.3125 -32.078125 "/></g></g></g><g fill="#0c1c3f" fill-opacity="1"><g transform="translate(103.226453, 141.837109)"><g><path d="M 1.5625 -32.078125 L 2.5625 -32.078125 C 4.1875 -32.078125 5.546875 -32.03125 6.640625 -31.9375 C 7.742188 -31.851562 8.710938 -31.65625 9.546875 -31.34375 C 10.390625 -31.039062 11.1875 -30.597656 11.9375 -30.015625 C 12.6875 -29.429688 13.519531 -28.65625 14.4375 -27.6875 C 15.320312 -28.601562 16.109375 -29.34375 16.796875 -29.90625 C 17.484375 -30.46875 18.207031 -30.910156 18.96875 -31.234375 C 19.738281 -31.554688 20.617188 -31.769531 21.609375 -31.875 C 22.597656 -31.976562 23.84375 -32.046875 25.34375 -32.078125 L 27.3125 -32.078125 L 27.3125 -23.09375 C 24.71875 -23.09375 22.753906 -22.472656 21.421875 -21.234375 C 20.097656 -20.003906 19.4375 -18.285156 19.4375 -16.078125 C 19.4375 -13.847656 20.097656 -12.109375 21.421875 -10.859375 C 22.753906 -9.609375 24.71875 -8.984375 27.3125 -8.984375 L 27.3125 0 L 26.265625 0 C 24.609375 0 23.222656 -0.0507812 22.109375 -0.15625 C 20.992188 -0.269531 20.015625 -0.484375 19.171875 -0.796875 C 18.335938 -1.117188 17.5625 -1.5625 16.84375 -2.125 C 16.125 -2.695312 15.320312 -3.457031 14.4375 -4.40625 C 13.613281 -3.519531 12.859375 -2.789062 12.171875 -2.21875 C 11.484375 -1.65625 10.75 -1.210938 9.96875 -0.890625 C 9.1875 -0.566406 8.269531 -0.335938 7.21875 -0.203125 C 6.164062 -0.0664062 4.859375 0 3.296875 0 L 1.5625 0 L 1.5625 -8.984375 C 4.21875 -9.015625 6.191406 -9.65625 7.484375 -10.90625 C 8.785156 -12.15625 9.4375 -13.878906 9.4375 -16.078125 C 9.4375 -18.285156 8.769531 -20.003906 7.4375 -21.234375 C 6.113281 -22.472656 4.15625 -23.09375 1.5625 -23.09375 Z M 1.5625 -32.078125 "/></g></g></g><g fill="#0c1c3f" fill-opacity="1"><g transform="translate(132.098876, 141.837109)"><g><path d="M 11.78125 -30.15625 C 11.78125 -29.425781 11.632812 -28.726562 11.34375 -28.0625 C 11.050781 -27.40625 10.648438 -26.832031 10.140625 -26.34375 C 9.640625 -25.863281 9.066406 -25.476562 8.421875 -25.1875 C 7.785156 -24.894531 7.101562 -24.75 6.375 -24.75 C 5.632812 -24.75 4.9375 -24.894531 4.28125 -25.1875 C 3.625 -25.476562 3.050781 -25.863281 2.5625 -26.34375 C 2.070312 -26.832031 1.679688 -27.40625 1.390625 -28.0625 C 1.109375 -28.726562 0.96875 -29.425781 0.96875 -30.15625 C 0.96875 -30.882812 1.109375 -31.566406 1.390625 -32.203125 C 1.679688 -32.847656 2.070312 -33.421875 2.5625 -33.921875 C 3.050781 -34.429688 3.625 -34.832031 4.28125 -35.125 C 4.9375 -35.414062 5.632812 -35.5625 6.375 -35.5625 C 7.101562 -35.5625 7.796875 -35.414062 8.453125 -35.125 C 9.109375 -34.832031 9.679688 -34.429688 10.171875 -33.921875 C 10.660156 -33.421875 11.050781 -32.847656 11.34375 -32.203125 C 11.632812 -31.566406 11.78125 -30.882812 11.78125 -30.15625 Z M 10.953125 -22.90625 L 10.953125 0 L 1.78125 0 L 1.78125 -22.90625 Z M 10.953125 -22.90625 "/></g></g></g><g fill="#0c1c3f" fill-opacity="1"><g transform="translate(144.839406, 141.837109)"><g><path d="M 23.09375 0 L 13.9375 0 L 13.9375 -12.515625 C 13.9375 -13.367188 13.8125 -14 13.5625 -14.40625 C 13.320312 -14.820312 12.894531 -15.03125 12.28125 -15.03125 C 11.664062 -15.03125 11.234375 -14.820312 10.984375 -14.40625 C 10.742188 -14 10.625 -13.367188 10.625 -12.515625 L 10.625 0 L 1.46875 0 L 1.46875 -13.890625 C 1.46875 -15.234375 1.710938 -16.492188 2.203125 -17.671875 C 2.691406 -18.847656 3.394531 -19.863281 4.3125 -20.71875 C 5.226562 -21.570312 6.359375 -22.242188 7.703125 -22.734375 C 9.046875 -23.222656 10.570312 -23.46875 12.28125 -23.46875 C 14.050781 -23.46875 15.609375 -23.210938 16.953125 -22.703125 C 18.296875 -22.203125 19.425781 -21.515625 20.34375 -20.640625 C 21.257812 -19.773438 21.945312 -18.757812 22.40625 -17.59375 C 22.863281 -16.4375 23.09375 -15.203125 23.09375 -13.890625 Z M 23.09375 0 "/></g></g></g><g fill="#0c1c3f" fill-opacity="1"><g transform="translate(74.661169, 157.132635)"><g><path d="M 3.109375 0 L 3.109375 -7.09375 L 0.328125 -7.09375 L 0.328125 -9.359375 L 8.515625 -9.359375 L 8.515625 -7.09375 L 5.71875 -7.09375 L 5.71875 0 Z M 3.109375 0 "/></g></g></g><g fill="#0c1c3f" fill-opacity="1"><g transform="translate(83.479214, 157.132635)"><g><path d="M 0.828125 0 L 0.828125 -9.359375 L 8.359375 -9.359375 L 8.359375 -7.171875 L 3.390625 -7.171875 L 3.390625 -5.734375 L 7.890625 -5.734375 L 7.890625 -3.6875 L 3.390625 -3.6875 L 3.390625 -2.203125 L 8.421875 -2.203125 L 8.421875 0 Z M 0.828125 0 "/></g></g></g><g fill="#0c1c3f" fill-opacity="1"><g transform="translate(92.404144, 157.132635)"><g><path d="M 5.34375 0.1875 C 4.675781 0.1875 4.046875 0.0664062 3.453125 -0.171875 C 2.867188 -0.421875 2.359375 -0.757812 1.921875 -1.1875 C 1.492188 -1.613281 1.148438 -2.125 0.890625 -2.71875 C 0.640625 -3.3125 0.515625 -3.957031 0.515625 -4.65625 L 0.515625 -4.6875 C 0.515625 -5.363281 0.640625 -6 0.890625 -6.59375 C 1.140625 -7.1875 1.476562 -7.695312 1.90625 -8.125 C 2.34375 -8.5625 2.863281 -8.90625 3.46875 -9.15625 C 4.082031 -9.414062 4.738281 -9.546875 5.4375 -9.546875 C 6.394531 -9.546875 7.191406 -9.363281 7.828125 -9 C 8.472656 -8.632812 9.003906 -8.171875 9.421875 -7.609375 L 7.46875 -6.09375 C 7.195312 -6.425781 6.894531 -6.691406 6.5625 -6.890625 C 6.238281 -7.097656 5.859375 -7.203125 5.421875 -7.203125 C 5.085938 -7.203125 4.785156 -7.132812 4.515625 -7 C 4.242188 -6.863281 4.007812 -6.679688 3.8125 -6.453125 C 3.613281 -6.234375 3.457031 -5.972656 3.34375 -5.671875 C 3.238281 -5.367188 3.1875 -5.046875 3.1875 -4.703125 L 3.1875 -4.6875 C 3.1875 -4.332031 3.238281 -4 3.34375 -3.6875 C 3.457031 -3.382812 3.613281 -3.117188 3.8125 -2.890625 C 4.007812 -2.671875 4.242188 -2.5 4.515625 -2.375 C 4.785156 -2.25 5.085938 -2.1875 5.421875 -2.1875 C 5.898438 -2.1875 6.300781 -2.289062 6.625 -2.5 C 6.945312 -2.707031 7.25 -2.976562 7.53125 -3.3125 L 9.484375 -1.921875 C 9.046875 -1.316406 8.503906 -0.8125 7.859375 -0.40625 C 7.210938 -0.0078125 6.375 0.1875 5.34375 0.1875 Z M 5.34375 0.1875 "/></g></g></g><g fill="#0c1c3f" fill-opacity="1"><g transform="translate(102.170795, 157.132635)"><g><path d="M 0.828125 0 L 0.828125 -9.359375 L 3.421875 -9.359375 L 3.421875 -5.859375 L 6.75 -5.859375 L 6.75 -9.359375 L 9.34375 -9.359375 L 9.34375 0 L 6.75 0 L 6.75 -3.5625 L 3.421875 -3.5625 L 3.421875 0 Z M 0.828125 0 "/></g></g></g></svg>